<svg xmlns="http://www.w3.org/2000/svg" viewBox="0 0 24 24" aria-hidden="true" class="r-4qtqp9 r-yyyyoo r-z80fyv r-dnmrzs r-bnwqim r-1plcrui r-lrvibr r-19wmn03" style="color: rgb(239, 243, 244);"><g><path d="M12 19.344l-8.72-8.72c-.293-.293-.768-.293-1.06 0s-.294.768 0 1.06l9.25 9.25c.292.294.767.294 1.06 0l9.25-9.25c.146-.145.22-.337.22-.53s-.073-.383-.22-.53c-.293-.292-.768-.292-1.06 0L12 19.344z"/><path d="M12 11.535l-8.72-8.72c-.293-.293-.768-.293-1.06 0s-.294.768 0 1.06l9.25 9.25c.292.294.767.294 1.06 0l9.25-9.25c.146-.145.22-.337.22-.53s-.073-.383-.22-.53c-.293-.292-.768-.292-1.06 0L12 11.535z"/></g></svg>