<svg xmlns="http://www.w3.org/2000/svg" viewBox="0 0 24 24" aria-hidden="true" class="r-1bwzh9t r-4qtqp9 r-yyyyoo r-1xvli5t r-dnmrzs r-bnwqim r-1plcrui r-lrvibr"><g><path d="M20 16H5.81l2.72-2.72c.294-.293.294-.768 0-1.06s-.767-.294-1.06 0l-4 4c-.293.292-.293.767 0 1.06l4 4c.146.147.338.22.53.22s.384-.073.53-.22c.293-.293.293-.768 0-1.06L5.81 17.5H20c.414 0 .75-.337.75-.75S20.414 16 20 16zm.53-9.28l-4-4c-.293-.293-.768-.293-1.06 0s-.294.768 0 1.06l2.72 2.72H4c-.414 0-.75.337-.75.75S3.586 8 4 8h14.19l-2.72 2.72c-.294.293-.294.768 0 1.06.146.147.338.22.53.22s.384-.073.53-.22l4-4c.293-.293.293-.767 0-1.06z"/></g></svg>