<svg xmlns="http://www.w3.org/2000/svg" viewBox="0 0 24 24" aria-hidden="true" class="r-1adg3ll r-yyyyoo r-dnmrzs r-bnwqim r-1plcrui r-lrvibr" style="height: 1.5em;"><g><path d="M3.5 19.44v-4c0-.414-.336-.75-.75-.75s-.75.336-.75.75v5.81c0 .414.336.75.75.75h5.81c.414 0 .75-.336.75-.75s-.336-.75-.75-.75h-4l6.577-6.576c.146-.146.22-.338.22-.53s-.073-.384-.22-.53c-.293-.293-.768-.293-1.06 0L3.5 19.44zM14.69 2.75c0 .414.336.75.75.75h4l-6.577 6.576c-.293.293-.293.768 0 1.06s.768.294 1.06 0L20.5 4.562v4c0 .414.336.75.75.75s.75-.336.75-.75V2.75c0-.414-.336-.75-.75-.75h-5.81c-.414 0-.75.336-.75.75z"/></g></svg>