<svg xmlns="http://www.w3.org/2000/svg" viewBox="0 0 24 24" aria-hidden="true" class="r-1bwzh9t r-4qtqp9 r-yyyyoo r-1xvli5t r-dnmrzs r-bnwqim r-1plcrui r-lrvibr"><g><path d="M17.89 7.673c-.002-3.246-2.644-5.888-5.89-5.888S6.112 4.427 6.11 7.673v.002c0 .414.337.75.75.75.415 0 .75-.336.75-.75 0-2.42 1.97-4.39 4.39-4.39s4.39 1.97 4.39 4.39c0 .414.335.75.75.75.413 0 .75-.336.75-.75v-.002z"/><path d="M19.75 7.31H4.25C3.01 7.31 2 8.317 2 9.56v10.23c0 1.24 1.01 2.25 2.25 2.25h15.5c1.24 0 2.25-1.01 2.25-2.25V9.56c0-1.242-1.01-2.25-2.25-2.25zm.75 12.482c0 .413-.336.75-.75.75H4.25c-.414 0-.75-.337-.75-.75V9.56c0-.414.336-.75.75-.75h15.5c.414 0 .75.336.75.75v10.23z"/><path d="M12 11.72c-1.136 0-2.057.92-2.057 2.056 0 .87.543 1.61 1.307 1.91v1.397c0 .414.336.75.75.75s.75-.336.75-.75v-1.396c.764-.3 1.307-1.04 1.307-1.91 0-1.137-.92-2.058-2.057-2.058z"/></g></svg>